<svg width="204" height="152" viewBox="0 0 204 152" fill="none" xmlns="http://www.w3.org/2000/svg">
<path d="M203.94 76.11C203.773 69.7892 202.802 63.5154 201.05 57.44C191.52 24.44 159.78 -1.90735e-06 121.79 -1.90735e-06H83.01C45.01 -1.90735e-06 13.28 24.47 3.75 57.44C1.98793 63.5141 1.00668 69.7879 0.829987 76.11C0.783321 78.0367 0.806661 79.9867 0.899995 81.96L11.9 299.4C12.23 305.9 17.9 311 24.7 311H180C186.84 311 192.47 305.9 192.8 299.4L203.8 81.96C203.947 79.9933 203.993 78.0433 203.94 76.11ZM173.09 126.91C171.47 134.85 164.97 141.33 156.24 143.68L110.36 156.01C105.728 157.25 100.852 157.25 96.22 156.01L50.35 143.68C41.62 141.33 35.12 134.85 33.5 126.91C33.2431 125.653 33.1125 124.373 33.11 123.09C33.11 112.74 41.59 103.59 53.54 101.88L93.83 96.12C100.131 95.2162 106.529 95.2162 112.83 96.12L153.11 101.88C166.46 103.8 175.49 115.08 173.09 126.91Z" fill="#202123"/>
</svg>
