<svg width="28" height="28" viewBox="0 0 28 28" fill="none" xmlns="http://www.w3.org/2000/svg">
<path d="M19.8331 2.33313C21.3789 2.33774 22.8601 2.95385 23.9531 4.04689C25.0461 5.13993 25.6623 6.62109 25.6669 8.16687V19.8331C25.6623 21.3789 25.0461 22.8601 23.9531 23.9531C22.8601 25.0462 21.3789 25.6623 19.8331 25.6669H8.16687C6.62109 25.6623 5.13993 25.0462 4.04689 23.9531C2.95385 22.8601 2.33774 21.3789 2.33312 19.8331V8.16687C2.33774 6.62109 2.95385 5.13993 4.04689 4.04689C5.13993 2.95385 6.62109 2.33774 8.16687 2.33313H19.8331ZM19.8331 0H8.16687C3.675 0 0 3.675 0 8.16687V19.8331C0 24.325 3.675 28 8.16687 28H19.8331C24.325 28 28 24.325 28 19.8331V8.16687C28 3.675 24.325 0 19.8331 0Z" fill="white"/>
</svg>
